<?xml version="1.0" encoding="us-ascii" standalone="no"?><svg xmlns="http://www.w3.org/2000/svg" xmlns:xlink="http://www.w3.org/1999/xlink" contentStyleType="text/css" height="1204px" preserveAspectRatio="none" style="width:2631px;height:1204px;background:#FFFFFF;" version="1.1" viewBox="0 0 2631 1204" width="2631px" zoomAndPan="magnify"><defs/><g><!--class GameService--><g id="elem_GameService"><rect codeLine="1" fill="#F1F1F1" height="153.6563" id="GameService" rx="2.5" ry="2.5" style="stroke:#181818;stroke-width:0.5;" width="293" x="1445.7043" y="276"/><ellipse cx="1545.4543" cy="292" fill="#ADD1B2" rx="11" ry="11" style="stroke:#181818;stroke-width:1.0;"/><path d="M1548.2199,287.875 Q1548.3762,287.6563 1548.5637,287.5469 Q1548.7512,287.4375 1548.9699,287.4375 Q1549.3449,287.4375 1549.5793,287.7031 Q1549.8137,287.9531 1549.8137,288.5625 L1549.8137,290.0156 Q1549.8137,290.625 1549.5793,290.8906 Q1549.3449,291.1563 1548.9699,291.1563 Q1548.6262,291.1563 1548.4231,290.9531 Q1548.2199,290.7656 1548.1106,290.25 Q1548.0637,289.8906 1547.8762,289.7031 Q1547.5481,289.3281 1546.9387,289.1094 Q1546.3293,288.8906 1545.7043,288.8906 Q1544.9387,288.8906 1544.2981,289.2188 Q1543.6731,289.5469 1543.1731,290.2969 Q1542.6887,291.0469 1542.6887,292.0781 L1542.6887,293.1719 Q1542.6887,294.4063 1543.5793,295.2344 Q1544.4699,296.0469 1546.0637,296.0469 Q1547.0012,296.0469 1547.6574,295.7969 Q1548.0481,295.6406 1548.4699,295.2031 Q1548.7356,294.9375 1548.8762,294.8594 Q1549.0324,294.7813 1549.2356,294.7813 Q1549.5637,294.7813 1549.8137,295.0469 Q1550.0793,295.2969 1550.0793,295.6406 Q1550.0793,295.9844 1549.7356,296.3906 Q1549.2356,296.9688 1548.4387,297.2969 Q1547.3606,297.75 1546.0637,297.75 Q1544.5481,297.75 1543.3449,297.125 Q1542.3606,296.625 1541.6731,295.5625 Q1540.9856,294.4844 1540.9856,293.2031 L1540.9856,292.0469 Q1540.9856,290.7188 1541.5949,289.5781 Q1542.2199,288.4219 1543.3137,287.8125 Q1544.4074,287.1875 1545.6418,287.1875 Q1546.3762,287.1875 1547.0168,287.3594 Q1547.6731,287.5156 1548.2199,287.875 Z " fill="#000000"/><text fill="#000000" font-family="sans-serif" font-size="14" lengthAdjust="spacing" textLength="85" x="1565.9543" y="297.7285">GameService</text><line style="stroke:#181818;stroke-width:0.5;" x1="1446.7043" x2="1737.7043" y1="308" y2="308"/><line style="stroke:#181818;stroke-width:0.5;" x1="1446.7043" x2="1737.7043" y1="316" y2="316"/><rect fill="#F24D5C" height="6" style="stroke:#C82930;stroke-width:1.0;" width="6" x="1453.7043" y="327.3047"/><text fill="#000000" font-family="sans-serif" font-size="14" lengthAdjust="spacing" textLength="78" x="1465.7043" y="334.5332">Start() : void</text><ellipse cx="1456.7043" cy="347.9141" fill="#84BE84" rx="3" ry="3" style="stroke:#038048;stroke-width:1.0;"/><text fill="#000000" font-family="sans-serif" font-size="14" lengthAdjust="spacing" textLength="213" x="1465.7043" y="352.1426">GetChestService() : ChestService</text><ellipse cx="1456.7043" cy="365.5234" fill="#84BE84" rx="3" ry="3" style="stroke:#038048;stroke-width:1.0;"/><text fill="#000000" font-family="sans-serif" font-size="14" lengthAdjust="spacing" textLength="267" x="1465.7043" y="369.752">GetInfoHolderService() : InfoHolderService</text><ellipse cx="1456.7043" cy="383.1328" fill="#84BE84" rx="3" ry="3" style="stroke:#038048;stroke-width:1.0;"/><text fill="#000000" font-family="sans-serif" font-size="14" lengthAdjust="spacing" textLength="185" x="1465.7043" y="387.3613">GetChestInfo() : ChestInfoSO</text><ellipse cx="1456.7043" cy="400.7422" fill="#84BE84" rx="3" ry="3" style="stroke:#038048;stroke-width:1.0;"/><text fill="#000000" font-family="sans-serif" font-size="14" lengthAdjust="spacing" textLength="267" x="1465.7043" y="404.9707">SetChestItem(_chestitem:ChestItem) : void</text><ellipse cx="1456.7043" cy="418.3516" fill="#84BE84" rx="3" ry="3" style="stroke:#038048;stroke-width:1.0;"/><text fill="#000000" font-family="sans-serif" font-size="14" lengthAdjust="spacing" textLength="171" x="1465.7043" y="422.5801">GetChestItem() : ChestItem</text></g><!--class GenericMonoSingleton`1--><g id="elem_GenericMonoSingleton`1"><rect codeLine="91" fill="#F1F1F1" height="100.8281" id="GenericMonoSingleton`1" rx="2.5" ry="2.5" style="stroke:#181818;stroke-width:0.5;" width="200" x="1563.2043" y="115"/><ellipse cx="1578.2043" cy="131" fill="#ADD1B2" rx="11" ry="11" style="stroke:#181818;stroke-width:1.0;"/><path d="M1580.9699,126.875 Q1581.1262,126.6563 1581.3137,126.5469 Q1581.5012,126.4375 1581.7199,126.4375 Q1582.0949,126.4375 1582.3293,126.7031 Q1582.5637,126.9531 1582.5637,127.5625 L1582.5637,129.0156 Q1582.5637,129.625 1582.3293,129.8906 Q1582.0949,130.1563 1581.7199,130.1563 Q1581.3762,130.1563 1581.1731,129.9531 Q1580.9699,129.7656 1580.8606,129.25 Q1580.8137,128.8906 1580.6262,128.7031 Q1580.2981,128.3281 1579.6887,128.1094 Q1579.0793,127.8906 1578.4543,127.8906 Q1577.6887,127.8906 1577.0481,128.2188 Q1576.4231,128.5469 1575.9231,129.2969 Q1575.4387,130.0469 1575.4387,131.0781 L1575.4387,132.1719 Q1575.4387,133.4063 1576.3293,134.2344 Q1577.2199,135.0469 1578.8137,135.0469 Q1579.7512,135.0469 1580.4074,134.7969 Q1580.7981,134.6406 1581.2199,134.2031 Q1581.4856,133.9375 1581.6262,133.8594 Q1581.7824,133.7813 1581.9856,133.7813 Q1582.3137,133.7813 1582.5637,134.0469 Q1582.8293,134.2969 1582.8293,134.6406 Q1582.8293,134.9844 1582.4856,135.3906 Q1581.9856,135.9688 1581.1887,136.2969 Q1580.1106,136.75 1578.8137,136.75 Q1577.2981,136.75 1576.0949,136.125 Q1575.1106,135.625 1574.4231,134.5625 Q1573.7356,133.4844 1573.7356,132.2031 L1573.7356,131.0469 Q1573.7356,129.7188 1574.3449,128.5781 Q1574.9699,127.4219 1576.0637,126.8125 Q1577.1574,126.1875 1578.3918,126.1875 Q1579.1262,126.1875 1579.7668,126.3594 Q1580.4231,126.5156 1580.9699,126.875 Z " fill="#000000"/><text fill="#000000" font-family="sans-serif" font-size="14" lengthAdjust="spacing" textLength="157" x="1592.2043" y="136.7285">GenericMonoSingleton`1</text><rect fill="#FFFFFF" height="17.0938" style="stroke:#181818;stroke-width:1.0;stroke-dasharray:2.0,2.0;" width="9" x="1757.2043" y="112"/><text fill="#000000" font-family="sans-serif" font-size="12" font-style="italic" lengthAdjust="spacing" textLength="7" x="1758.2043" y="125.457">T</text><line style="stroke:#181818;stroke-width:0.5;" x1="1564.2043" x2="1762.2043" y1="147" y2="147"/><ellipse cx="1574.2043" cy="161.3047" fill="none" rx="3" ry="3" style="stroke:#038048;stroke-width:1.0;"/><text fill="#000000" font-family="sans-serif" font-size="14" lengthAdjust="spacing" text-decoration="underline" textLength="114" x="1583.2043" y="165.5332">Instance : T &#171;get&#187;</text><rect fill="none" height="6" style="stroke:#C82930;stroke-width:1.0;" width="6" x="1571.2043" y="175.9141"/><text fill="#000000" font-family="sans-serif" font-size="14" lengthAdjust="spacing" text-decoration="underline" textLength="74" x="1583.2043" y="183.1426">instance : T</text><line style="stroke:#181818;stroke-width:0.5;" x1="1564.2043" x2="1762.2043" y1="190.2188" y2="190.2188"/><rect fill="#F24D5C" height="6" style="stroke:#C82930;stroke-width:1.0;" width="6" x="1571.2043" y="201.5234"/><text fill="#000000" font-family="sans-serif" font-size="14" lengthAdjust="spacing" textLength="89" x="1583.2043" y="208.752">Awake() : void</text></g><!--class ChestService--><g id="elem_ChestService"><rect codeLine="53" fill="#F1F1F1" height="83.2188" id="ChestService" rx="2.5" ry="2.5" style="stroke:#181818;stroke-width:0.5;" width="665" x="375.7043" y="569.5"/><ellipse cx="661.9543" cy="585.5" fill="#ADD1B2" rx="11" ry="11" style="stroke:#181818;stroke-width:1.0;"/><path d="M664.7199,581.375 Q664.8762,581.1563 665.0637,581.0469 Q665.2512,580.9375 665.4699,580.9375 Q665.8449,580.9375 666.0793,581.2031 Q666.3137,581.4531 666.3137,582.0625 L666.3137,583.5156 Q666.3137,584.125 666.0793,584.3906 Q665.8449,584.6563 665.4699,584.6563 Q665.1262,584.6563 664.9231,584.4531 Q664.7199,584.2656 664.6106,583.75 Q664.5637,583.3906 664.3762,583.2031 Q664.0481,582.8281 663.4387,582.6094 Q662.8293,582.3906 662.2043,582.3906 Q661.4387,582.3906 660.7981,582.7188 Q660.1731,583.0469 659.6731,583.7969 Q659.1887,584.5469 659.1887,585.5781 L659.1887,586.6719 Q659.1887,587.9063 660.0793,588.7344 Q660.9699,589.5469 662.5637,589.5469 Q663.5012,589.5469 664.1574,589.2969 Q664.5481,589.1406 664.9699,588.7031 Q665.2356,588.4375 665.3762,588.3594 Q665.5324,588.2813 665.7356,588.2813 Q666.0637,588.2813 666.3137,588.5469 Q666.5793,588.7969 666.5793,589.1406 Q666.5793,589.4844 666.2356,589.8906 Q665.7356,590.4688 664.9387,590.7969 Q663.8606,591.25 662.5637,591.25 Q661.0481,591.25 659.8449,590.625 Q658.8606,590.125 658.1731,589.0625 Q657.4856,587.9844 657.4856,586.7031 L657.4856,585.5469 Q657.4856,584.2188 658.0949,583.0781 Q658.7199,581.9219 659.8137,581.3125 Q660.9074,580.6875 662.1418,580.6875 Q662.8762,580.6875 663.5168,580.8594 Q664.1731,581.0156 664.7199,581.375 Z " fill="#000000"/><text fill="#000000" font-family="sans-serif" font-size="14" lengthAdjust="spacing" textLength="84" x="682.4543" y="591.2285">ChestService</text><line style="stroke:#181818;stroke-width:0.5;" x1="376.7043" x2="1039.7043" y1="601.5" y2="601.5"/><line style="stroke:#181818;stroke-width:0.5;" x1="376.7043" x2="1039.7043" y1="609.5" y2="609.5"/><ellipse cx="386.7043" cy="623.8047" fill="#84BE84" rx="3" ry="3" style="stroke:#038048;stroke-width:1.0;"/><text fill="#000000" font-family="sans-serif" font-size="14" lengthAdjust="spacing" textLength="639" x="395.7043" y="628.0332">ChestService(_chestSystemView:ChestSystemView, _chestListSO:ChestListSO, _pfItem:GameObject)</text><ellipse cx="386.7043" cy="641.4141" fill="#84BE84" rx="3" ry="3" style="stroke:#038048;stroke-width:1.0;"/><text fill="#000000" font-family="sans-serif" font-size="14" lengthAdjust="spacing" textLength="243" x="395.7043" y="645.6426">GetChestController() : ChestController</text></g><!--class InfoHolderService--><g id="elem_InfoHolderService"><rect codeLine="69" fill="#F1F1F1" height="83.2188" id="InfoHolderService" rx="2.5" ry="2.5" style="stroke:#181818;stroke-width:0.5;" width="355" x="1414.7043" y="569.5"/><ellipse cx="1532.4543" cy="585.5" fill="#ADD1B2" rx="11" ry="11" style="stroke:#181818;stroke-width:1.0;"/><path d="M1535.2199,581.375 Q1535.3762,581.1563 1535.5637,581.0469 Q1535.7512,580.9375 1535.9699,580.9375 Q1536.3449,580.9375 1536.5793,581.2031 Q1536.8137,581.4531 1536.8137,582.0625 L1536.8137,583.5156 Q1536.8137,584.125 1536.5793,584.3906 Q1536.3449,584.6563 1535.9699,584.6563 Q1535.6262,584.6563 1535.4231,584.4531 Q1535.2199,584.2656 1535.1106,583.75 Q1535.0637,583.3906 1534.8762,583.2031 Q1534.5481,582.8281 1533.9387,582.6094 Q1533.3293,582.3906 1532.7043,582.3906 Q1531.9387,582.3906 1531.2981,582.7188 Q1530.6731,583.0469 1530.1731,583.7969 Q1529.6887,584.5469 1529.6887,585.5781 L1529.6887,586.6719 Q1529.6887,587.9063 1530.5793,588.7344 Q1531.4699,589.5469 1533.0637,589.5469 Q1534.0012,589.5469 1534.6574,589.2969 Q1535.0481,589.1406 1535.4699,588.7031 Q1535.7356,588.4375 1535.8762,588.3594 Q1536.0324,588.2813 1536.2356,588.2813 Q1536.5637,588.2813 1536.8137,588.5469 Q1537.0793,588.7969 1537.0793,589.1406 Q1537.0793,589.4844 1536.7356,589.8906 Q1536.2356,590.4688 1535.4387,590.7969 Q1534.3606,591.25 1533.0637,591.25 Q1531.5481,591.25 1530.3449,590.625 Q1529.3606,590.125 1528.6731,589.0625 Q1527.9856,587.9844 1527.9856,586.7031 L1527.9856,585.5469 Q1527.9856,584.2188 1528.5949,583.0781 Q1529.2199,581.9219 1530.3137,581.3125 Q1531.4074,580.6875 1532.6418,580.6875 Q1533.3762,580.6875 1534.0168,580.8594 Q1534.6731,581.0156 1535.2199,581.375 Z " fill="#000000"/><text fill="#000000" font-family="sans-serif" font-size="14" lengthAdjust="spacing" textLength="111" x="1552.9543" y="591.2285">InfoHolderService</text><line style="stroke:#181818;stroke-width:0.5;" x1="1415.7043" x2="1768.7043" y1="601.5" y2="601.5"/><line style="stroke:#181818;stroke-width:0.5;" x1="1415.7043" x2="1768.7043" y1="609.5" y2="609.5"/><ellipse cx="1425.7043" cy="623.8047" fill="#84BE84" rx="3" ry="3" style="stroke:#038048;stroke-width:1.0;"/><text fill="#000000" font-family="sans-serif" font-size="14" lengthAdjust="spacing" textLength="329" x="1434.7043" y="628.0332">InfoHolderService(_inforHolderView:InforHolderView)</text><ellipse cx="1425.7043" cy="641.4141" fill="#84BE84" rx="3" ry="3" style="stroke:#038048;stroke-width:1.0;"/><text fill="#000000" font-family="sans-serif" font-size="14" lengthAdjust="spacing" textLength="297" x="1434.7043" y="645.6426">GetInfoHolderController() : InfoHolderController</text></g><!--class ChestSystemView--><g id="elem_ChestSystemView"><rect codeLine="61" fill="#F1F1F1" height="48" id="ChestSystemView" rx="2.5" ry="2.5" style="stroke:#181818;stroke-width:0.5;" width="144" x="55.2043" y="988"/><ellipse cx="70.2043" cy="1004" fill="#ADD1B2" rx="11" ry="11" style="stroke:#181818;stroke-width:1.0;"/><path d="M72.9699,999.875 Q73.1262,999.6563 73.3137,999.5469 Q73.5012,999.4375 73.7199,999.4375 Q74.0949,999.4375 74.3293,999.7031 Q74.5637,999.9531 74.5637,1000.5625 L74.5637,1002.0156 Q74.5637,1002.625 74.3293,1002.8906 Q74.0949,1003.1563 73.7199,1003.1563 Q73.3762,1003.1563 73.1731,1002.9531 Q72.9699,1002.7656 72.8606,1002.25 Q72.8137,1001.8906 72.6262,1001.7031 Q72.2981,1001.3281 71.6887,1001.1094 Q71.0793,1000.8906 70.4543,1000.8906 Q69.6887,1000.8906 69.0481,1001.2188 Q68.4231,1001.5469 67.9231,1002.2969 Q67.4387,1003.0469 67.4387,1004.0781 L67.4387,1005.1719 Q67.4387,1006.4063 68.3293,1007.2344 Q69.2199,1008.0469 70.8137,1008.0469 Q71.7512,1008.0469 72.4074,1007.7969 Q72.7981,1007.6406 73.2199,1007.2031 Q73.4856,1006.9375 73.6262,1006.8594 Q73.7824,1006.7813 73.9856,1006.7813 Q74.3137,1006.7813 74.5637,1007.0469 Q74.8293,1007.2969 74.8293,1007.6406 Q74.8293,1007.9844 74.4856,1008.3906 Q73.9856,1008.9688 73.1887,1009.2969 Q72.1106,1009.75 70.8137,1009.75 Q69.2981,1009.75 68.0949,1009.125 Q67.1106,1008.625 66.4231,1007.5625 Q65.7356,1006.4844 65.7356,1005.2031 L65.7356,1004.0469 Q65.7356,1002.7188 66.3449,1001.5781 Q66.9699,1000.4219 68.0637,999.8125 Q69.1574,999.1875 70.3918,999.1875 Q71.1262,999.1875 71.7668,999.3594 Q72.4231,999.5156 72.9699,999.875 Z " fill="#000000"/><text fill="#000000" font-family="sans-serif" font-size="14" lengthAdjust="spacing" textLength="112" x="84.2043" y="1009.7285">ChestSystemView</text><line style="stroke:#181818;stroke-width:0.5;" x1="56.2043" x2="198.2043" y1="1020" y2="1020"/><line style="stroke:#181818;stroke-width:0.5;" x1="56.2043" x2="198.2043" y1="1028" y2="1028"/></g><!--class InforHolderView--><g id="elem_InforHolderView"><rect codeLine="75" fill="#F1F1F1" height="153.6563" id="InforHolderView" rx="2.5" ry="2.5" style="stroke:#181818;stroke-width:0.5;" width="278" x="2150.2043" y="935"/><ellipse cx="2235.9543" cy="951" fill="#ADD1B2" rx="11" ry="11" style="stroke:#181818;stroke-width:1.0;"/><path d="M2238.7199,946.875 Q2238.8762,946.6563 2239.0637,946.5469 Q2239.2512,946.4375 2239.4699,946.4375 Q2239.8449,946.4375 2240.0793,946.7031 Q2240.3137,946.9531 2240.3137,947.5625 L2240.3137,949.0156 Q2240.3137,949.625 2240.0793,949.8906 Q2239.8449,950.1563 2239.4699,950.1563 Q2239.1262,950.1563 2238.9231,949.9531 Q2238.7199,949.7656 2238.6106,949.25 Q2238.5637,948.8906 2238.3762,948.7031 Q2238.0481,948.3281 2237.4387,948.1094 Q2236.8293,947.8906 2236.2043,947.8906 Q2235.4387,947.8906 2234.7981,948.2188 Q2234.1731,948.5469 2233.6731,949.2969 Q2233.1887,950.0469 2233.1887,951.0781 L2233.1887,952.1719 Q2233.1887,953.4063 2234.0793,954.2344 Q2234.9699,955.0469 2236.5637,955.0469 Q2237.5012,955.0469 2238.1574,954.7969 Q2238.5481,954.6406 2238.9699,954.2031 Q2239.2356,953.9375 2239.3762,953.8594 Q2239.5324,953.7813 2239.7356,953.7813 Q2240.0637,953.7813 2240.3137,954.0469 Q2240.5793,954.2969 2240.5793,954.6406 Q2240.5793,954.9844 2240.2356,955.3906 Q2239.7356,955.9688 2238.9387,956.2969 Q2237.8606,956.75 2236.5637,956.75 Q2235.0481,956.75 2233.8449,956.125 Q2232.8606,955.625 2232.1731,954.5625 Q2231.4856,953.4844 2231.4856,952.2031 L2231.4856,951.0469 Q2231.4856,949.7188 2232.0949,948.5781 Q2232.7199,947.4219 2233.8137,946.8125 Q2234.9074,946.1875 2236.1418,946.1875 Q2236.8762,946.1875 2237.5168,946.3594 Q2238.1731,946.5156 2238.7199,946.875 Z " fill="#000000"/><text fill="#000000" font-family="sans-serif" font-size="14" lengthAdjust="spacing" textLength="98" x="2256.4543" y="956.7285">InforHolderView</text><line style="stroke:#181818;stroke-width:0.5;" x1="2151.2043" x2="2427.2043" y1="967" y2="967"/><line style="stroke:#181818;stroke-width:0.5;" x1="2151.2043" x2="2427.2043" y1="975" y2="975"/><ellipse cx="2161.2043" cy="989.3047" fill="#84BE84" rx="3" ry="3" style="stroke:#038048;stroke-width:1.0;"/><text fill="#000000" font-family="sans-serif" font-size="14" lengthAdjust="spacing" textLength="252" x="2170.2043" y="993.5332">SetPanelButton(panelStatus:bool) : void</text><rect fill="#F24D5C" height="6" style="stroke:#C82930;stroke-width:1.0;" width="6" x="2158.2043" y="1003.9141"/><text fill="#000000" font-family="sans-serif" font-size="14" lengthAdjust="spacing" textLength="111" x="2170.2043" y="1011.1426">OnEnable() : void</text><rect fill="#F24D5C" height="6" style="stroke:#C82930;stroke-width:1.0;" width="6" x="2158.2043" y="1021.5234"/><text fill="#000000" font-family="sans-serif" font-size="14" lengthAdjust="spacing" textLength="198" x="2170.2043" y="1028.752">OnGenerateButtonClick() : void</text><rect fill="#F24D5C" height="6" style="stroke:#C82930;stroke-width:1.0;" width="6" x="2158.2043" y="1039.1328"/><text fill="#000000" font-family="sans-serif" font-size="14" lengthAdjust="spacing" textLength="168" x="2170.2043" y="1046.3613">OnGemButtonClick() : void</text><rect fill="#F24D5C" height="6" style="stroke:#C82930;stroke-width:1.0;" width="6" x="2158.2043" y="1056.7422"/><text fill="#000000" font-family="sans-serif" font-size="14" lengthAdjust="spacing" textLength="138" x="2170.2043" y="1063.9707">OnStartButton() : void</text><rect fill="#F24D5C" height="6" style="stroke:#C82930;stroke-width:1.0;" width="6" x="2158.2043" y="1074.3516"/><text fill="#000000" font-family="sans-serif" font-size="14" lengthAdjust="spacing" textLength="114" x="2170.2043" y="1081.5801">OnDisable() : void</text></g><!--class GameObject--><g id="elem_GameObject"><rect fill="#F1F1F1" height="48" id="GameObject" rx="2.5" ry="2.5" style="stroke:#181818;stroke-width:0.5;" width="111" x="259.7043" y="988"/><ellipse cx="274.7043" cy="1004" fill="#ADD1B2" rx="11" ry="11" style="stroke:#181818;stroke-width:1.0;"/><path d="M277.4699,999.875 Q277.6262,999.6563 277.8137,999.5469 Q278.0012,999.4375 278.2199,999.4375 Q278.5949,999.4375 278.8293,999.7031 Q279.0637,999.9531 279.0637,1000.5625 L279.0637,1002.0156 Q279.0637,1002.625 278.8293,1002.8906 Q278.5949,1003.1563 278.2199,1003.1563 Q277.8762,1003.1563 277.6731,1002.9531 Q277.4699,1002.7656 277.3606,1002.25 Q277.3137,1001.8906 277.1262,1001.7031 Q276.7981,1001.3281 276.1887,1001.1094 Q275.5793,1000.8906 274.9543,1000.8906 Q274.1887,1000.8906 273.5481,1001.2188 Q272.9231,1001.5469 272.4231,1002.2969 Q271.9387,1003.0469 271.9387,1004.0781 L271.9387,1005.1719 Q271.9387,1006.4063 272.8293,1007.2344 Q273.7199,1008.0469 275.3137,1008.0469 Q276.2512,1008.0469 276.9074,1007.7969 Q277.2981,1007.6406 277.7199,1007.2031 Q277.9856,1006.9375 278.1262,1006.8594 Q278.2824,1006.7813 278.4856,1006.7813 Q278.8137,1006.7813 279.0637,1007.0469 Q279.3293,1007.2969 279.3293,1007.6406 Q279.3293,1007.9844 278.9856,1008.3906 Q278.4856,1008.9688 277.6887,1009.2969 Q276.6106,1009.75 275.3137,1009.75 Q273.7981,1009.75 272.5949,1009.125 Q271.6106,1008.625 270.9231,1007.5625 Q270.2356,1006.4844 270.2356,1005.2031 L270.2356,1004.0469 Q270.2356,1002.7188 270.8449,1001.5781 Q271.4699,1000.4219 272.5637,999.8125 Q273.6574,999.1875 274.8918,999.1875 Q275.6262,999.1875 276.2668,999.3594 Q276.9231,999.5156 277.4699,999.875 Z " fill="#000000"/><text fill="#000000" font-family="sans-serif" font-size="14" lengthAdjust="spacing" textLength="79" x="288.7043" y="1009.7285">GameObject</text><line style="stroke:#181818;stroke-width:0.5;" x1="260.7043" x2="369.7043" y1="1020" y2="1020"/><line style="stroke:#181818;stroke-width:0.5;" x1="260.7043" x2="369.7043" y1="1028" y2="1028"/></g><!--class ChestListSO--><g id="elem_ChestListSO"><rect codeLine="46" fill="#F1F1F1" height="48" id="ChestListSO" rx="2.5" ry="2.5" style="stroke:#181818;stroke-width:0.5;" width="111" x="1155.7043" y="988"/><ellipse cx="1170.7043" cy="1004" fill="#ADD1B2" rx="11" ry="11" style="stroke:#181818;stroke-width:1.0;"/><path d="M1173.4699,999.875 Q1173.6262,999.6563 1173.8137,999.5469 Q1174.0012,999.4375 1174.2199,999.4375 Q1174.5949,999.4375 1174.8293,999.7031 Q1175.0637,999.9531 1175.0637,1000.5625 L1175.0637,1002.0156 Q1175.0637,1002.625 1174.8293,1002.8906 Q1174.5949,1003.1563 1174.2199,1003.1563 Q1173.8762,1003.1563 1173.6731,1002.9531 Q1173.4699,1002.7656 1173.3606,1002.25 Q1173.3137,1001.8906 1173.1262,1001.7031 Q1172.7981,1001.3281 1172.1887,1001.1094 Q1171.5793,1000.8906 1170.9543,1000.8906 Q1170.1887,1000.8906 1169.5481,1001.2188 Q1168.9231,1001.5469 1168.4231,1002.2969 Q1167.9387,1003.0469 1167.9387,1004.0781 L1167.9387,1005.1719 Q1167.9387,1006.4063 1168.8293,1007.2344 Q1169.7199,1008.0469 1171.3137,1008.0469 Q1172.2512,1008.0469 1172.9074,1007.7969 Q1173.2981,1007.6406 1173.7199,1007.2031 Q1173.9856,1006.9375 1174.1262,1006.8594 Q1174.2824,1006.7813 1174.4856,1006.7813 Q1174.8137,1006.7813 1175.0637,1007.0469 Q1175.3293,1007.2969 1175.3293,1007.6406 Q1175.3293,1007.9844 1174.9856,1008.3906 Q1174.4856,1008.9688 1173.6887,1009.2969 Q1172.6106,1009.75 1171.3137,1009.75 Q1169.7981,1009.75 1168.5949,1009.125 Q1167.6106,1008.625 1166.9231,1007.5625 Q1166.2356,1006.4844 1166.2356,1005.2031 L1166.2356,1004.0469 Q1166.2356,1002.7188 1166.8449,1001.5781 Q1167.4699,1000.4219 1168.5637,999.8125 Q1169.6574,999.1875 1170.8918,999.1875 Q1171.6262,999.1875 1172.2668,999.3594 Q1172.9231,999.5156 1173.4699,999.875 Z " fill="#000000"/><text fill="#000000" font-family="sans-serif" font-size="14" lengthAdjust="spacing" textLength="79" x="1184.7043" y="1009.7285">ChestListSO</text><line style="stroke:#181818;stroke-width:0.5;" x1="1156.7043" x2="1265.7043" y1="1020" y2="1020"/><line style="stroke:#181818;stroke-width:0.5;" x1="1156.7043" x2="1265.7043" y1="1028" y2="1028"/></g><!--class ChestInfoSO--><g id="elem_ChestInfoSO"><rect fill="#F1F1F1" height="48" id="ChestInfoSO" rx="2.5" ry="2.5" style="stroke:#181818;stroke-width:0.5;" width="112" x="1943.2043" y="809.5"/><ellipse cx="1958.2043" cy="825.5" fill="#ADD1B2" rx="11" ry="11" style="stroke:#181818;stroke-width:1.0;"/><path d="M1960.9699,821.375 Q1961.1262,821.1563 1961.3137,821.0469 Q1961.5012,820.9375 1961.7199,820.9375 Q1962.0949,820.9375 1962.3293,821.2031 Q1962.5637,821.4531 1962.5637,822.0625 L1962.5637,823.5156 Q1962.5637,824.125 1962.3293,824.3906 Q1962.0949,824.6563 1961.7199,824.6563 Q1961.3762,824.6563 1961.1731,824.4531 Q1960.9699,824.2656 1960.8606,823.75 Q1960.8137,823.3906 1960.6262,823.2031 Q1960.2981,822.8281 1959.6887,822.6094 Q1959.0793,822.3906 1958.4543,822.3906 Q1957.6887,822.3906 1957.0481,822.7188 Q1956.4231,823.0469 1955.9231,823.7969 Q1955.4387,824.5469 1955.4387,825.5781 L1955.4387,826.6719 Q1955.4387,827.9063 1956.3293,828.7344 Q1957.2199,829.5469 1958.8137,829.5469 Q1959.7512,829.5469 1960.4074,829.2969 Q1960.7981,829.1406 1961.2199,828.7031 Q1961.4856,828.4375 1961.6262,828.3594 Q1961.7824,828.2813 1961.9856,828.2813 Q1962.3137,828.2813 1962.5637,828.5469 Q1962.8293,828.7969 1962.8293,829.1406 Q1962.8293,829.4844 1962.4856,829.8906 Q1961.9856,830.4688 1961.1887,830.7969 Q1960.1106,831.25 1958.8137,831.25 Q1957.2981,831.25 1956.0949,830.625 Q1955.1106,830.125 1954.4231,829.0625 Q1953.7356,827.9844 1953.7356,826.7031 L1953.7356,825.5469 Q1953.7356,824.2188 1954.3449,823.0781 Q1954.9699,821.9219 1956.0637,821.3125 Q1957.1574,820.6875 1958.3918,820.6875 Q1959.1262,820.6875 1959.7668,820.8594 Q1960.4231,821.0156 1960.9699,821.375 Z " fill="#000000"/><text fill="#000000" font-family="sans-serif" font-size="14" lengthAdjust="spacing" textLength="80" x="1972.2043" y="831.2285">ChestInfoSO</text><line style="stroke:#181818;stroke-width:0.5;" x1="1944.2043" x2="2054.2043" y1="841.5" y2="841.5"/><line style="stroke:#181818;stroke-width:0.5;" x1="1944.2043" x2="2054.2043" y1="849.5" y2="849.5"/></g><!--class ChestItem--><g id="elem_ChestItem"><rect codeLine="27" fill="#F1F1F1" height="241.7031" id="ChestItem" rx="2.5" ry="2.5" style="stroke:#181818;stroke-width:0.5;" width="346" x="1968.2043" y="490"/><ellipse cx="2105.4543" cy="506" fill="#ADD1B2" rx="11" ry="11" style="stroke:#181818;stroke-width:1.0;"/><path d="M2108.2199,501.875 Q2108.3762,501.6563 2108.5637,501.5469 Q2108.7512,501.4375 2108.9699,501.4375 Q2109.3449,501.4375 2109.5793,501.7031 Q2109.8137,501.9531 2109.8137,502.5625 L2109.8137,504.0156 Q2109.8137,504.625 2109.5793,504.8906 Q2109.3449,505.1563 2108.9699,505.1563 Q2108.6262,505.1563 2108.4231,504.9531 Q2108.2199,504.7656 2108.1106,504.25 Q2108.0637,503.8906 2107.8762,503.7031 Q2107.5481,503.3281 2106.9387,503.1094 Q2106.3293,502.8906 2105.7043,502.8906 Q2104.9387,502.8906 2104.2981,503.2188 Q2103.6731,503.5469 2103.1731,504.2969 Q2102.6887,505.0469 2102.6887,506.0781 L2102.6887,507.1719 Q2102.6887,508.4063 2103.5793,509.2344 Q2104.4699,510.0469 2106.0637,510.0469 Q2107.0012,510.0469 2107.6574,509.7969 Q2108.0481,509.6406 2108.4699,509.2031 Q2108.7356,508.9375 2108.8762,508.8594 Q2109.0324,508.7813 2109.2356,508.7813 Q2109.5637,508.7813 2109.8137,509.0469 Q2110.0793,509.2969 2110.0793,509.6406 Q2110.0793,509.9844 2109.7356,510.3906 Q2109.2356,510.9688 2108.4387,511.2969 Q2107.3606,511.75 2106.0637,511.75 Q2104.5481,511.75 2103.3449,511.125 Q2102.3606,510.625 2101.6731,509.5625 Q2100.9856,508.4844 2100.9856,507.2031 L2100.9856,506.0469 Q2100.9856,504.7188 2101.5949,503.5781 Q2102.2199,502.4219 2103.3137,501.8125 Q2104.4074,501.1875 2105.6418,501.1875 Q2106.3762,501.1875 2107.0168,501.3594 Q2107.6731,501.5156 2108.2199,501.875 Z " fill="#000000"/><text fill="#000000" font-family="sans-serif" font-size="14" lengthAdjust="spacing" textLength="63" x="2125.9543" y="511.7285">ChestItem</text><line style="stroke:#181818;stroke-width:0.5;" x1="1969.2043" x2="2313.2043" y1="522" y2="522"/><rect fill="none" height="6" style="stroke:#C82930;stroke-width:1.0;" width="6" x="1976.2043" y="533.3047"/><text fill="#000000" font-family="sans-serif" font-size="14" lengthAdjust="spacing" textLength="179" x="1988.2043" y="540.5332">startUnloacked : bool = false</text><line style="stroke:#181818;stroke-width:0.5;" x1="1969.2043" x2="2313.2043" y1="547.6094" y2="547.6094"/><ellipse cx="1979.2043" cy="561.9141" fill="#84BE84" rx="3" ry="3" style="stroke:#038048;stroke-width:1.0;"/><text fill="#000000" font-family="sans-serif" font-size="14" lengthAdjust="spacing" textLength="194" x="1988.2043" y="566.1426">SetImage(_image:Sprite) : void</text><ellipse cx="1979.2043" cy="579.5234" fill="#84BE84" rx="3" ry="3" style="stroke:#038048;stroke-width:1.0;"/><text fill="#000000" font-family="sans-serif" font-size="14" lengthAdjust="spacing" textLength="224" x="1988.2043" y="583.752">GetName(_chestName:string) : void</text><ellipse cx="1979.2043" cy="597.1328" fill="#84BE84" rx="3" ry="3" style="stroke:#038048;stroke-width:1.0;"/><text fill="#000000" font-family="sans-serif" font-size="14" lengthAdjust="spacing" textLength="320" x="1988.2043" y="601.3613">GetChestInfoSO(_chestInfoSO:ChestInfoSO) : void</text><rect fill="#F24D5C" height="6" style="stroke:#C82930;stroke-width:1.0;" width="6" x="1976.2043" y="611.7422"/><text fill="#000000" font-family="sans-serif" font-size="14" lengthAdjust="spacing" textLength="111" x="1988.2043" y="618.9707">OnEnable() : void</text><rect fill="#F24D5C" height="6" style="stroke:#C82930;stroke-width:1.0;" width="6" x="1976.2043" y="629.3516"/><text fill="#000000" font-family="sans-serif" font-size="14" lengthAdjust="spacing" textLength="114" x="1988.2043" y="636.5801">OnDisable() : void</text><rect fill="#F24D5C" height="6" style="stroke:#C82930;stroke-width:1.0;" width="6" x="1976.2043" y="646.9609"/><text fill="#000000" font-family="sans-serif" font-size="14" lengthAdjust="spacing" textLength="138" x="1988.2043" y="654.1895">OnButtonClick() : void</text><ellipse cx="1979.2043" cy="667.5703" fill="#84BE84" rx="3" ry="3" style="stroke:#038048;stroke-width:1.0;"/><text fill="#000000" font-family="sans-serif" font-size="14" lengthAdjust="spacing" textLength="165" x="1988.2043" y="671.7988">SetTime(_time:float) : void</text><ellipse cx="1979.2043" cy="685.1797" fill="#84BE84" rx="3" ry="3" style="stroke:#038048;stroke-width:1.0;"/><text fill="#000000" font-family="sans-serif" font-size="14" lengthAdjust="spacing" textLength="229" x="1988.2043" y="689.4082">SetBoolTimer(_unlocked:bool) : void</text><rect fill="#F24D5C" height="6" style="stroke:#C82930;stroke-width:1.0;" width="6" x="1976.2043" y="699.7891"/><text fill="#000000" font-family="sans-serif" font-size="14" lengthAdjust="spacing" textLength="93" x="1988.2043" y="707.0176">Update() : void</text><rect fill="#F24D5C" height="6" style="stroke:#C82930;stroke-width:1.0;" width="6" x="1976.2043" y="717.3984"/><text fill="#000000" font-family="sans-serif" font-size="14" lengthAdjust="spacing" textLength="114" x="1988.2043" y="724.627">StartTimer() : void</text></g><!--class ChestController--><g id="elem_ChestController"><rect codeLine="20" fill="#F1F1F1" height="83.2188" id="ChestController" rx="2.5" ry="2.5" style="stroke:#181818;stroke-width:0.5;" width="680" x="368.2043" y="792"/><ellipse cx="654.4543" cy="808" fill="#ADD1B2" rx="11" ry="11" style="stroke:#181818;stroke-width:1.0;"/><path d="M657.2199,803.875 Q657.3762,803.6563 657.5637,803.5469 Q657.7512,803.4375 657.9699,803.4375 Q658.3449,803.4375 658.5793,803.7031 Q658.8137,803.9531 658.8137,804.5625 L658.8137,806.0156 Q658.8137,806.625 658.5793,806.8906 Q658.3449,807.1563 657.9699,807.1563 Q657.6262,807.1563 657.4231,806.9531 Q657.2199,806.7656 657.1106,806.25 Q657.0637,805.8906 656.8762,805.7031 Q656.5481,805.3281 655.9387,805.1094 Q655.3293,804.8906 654.7043,804.8906 Q653.9387,804.8906 653.2981,805.2188 Q652.6731,805.5469 652.1731,806.2969 Q651.6887,807.0469 651.6887,808.0781 L651.6887,809.1719 Q651.6887,810.4063 652.5793,811.2344 Q653.4699,812.0469 655.0637,812.0469 Q656.0012,812.0469 656.6574,811.7969 Q657.0481,811.6406 657.4699,811.2031 Q657.7356,810.9375 657.8762,810.8594 Q658.0324,810.7813 658.2356,810.7813 Q658.5637,810.7813 658.8137,811.0469 Q659.0793,811.2969 659.0793,811.6406 Q659.0793,811.9844 658.7356,812.3906 Q658.2356,812.9688 657.4387,813.2969 Q656.3606,813.75 655.0637,813.75 Q653.5481,813.75 652.3449,813.125 Q651.3606,812.625 650.6731,811.5625 Q649.9856,810.4844 649.9856,809.2031 L649.9856,808.0469 Q649.9856,806.7188 650.5949,805.5781 Q651.2199,804.4219 652.3137,803.8125 Q653.4074,803.1875 654.6418,803.1875 Q655.3762,803.1875 656.0168,803.3594 Q656.6731,803.5156 657.2199,803.875 Z " fill="#000000"/><text fill="#000000" font-family="sans-serif" font-size="14" lengthAdjust="spacing" textLength="99" x="674.9543" y="813.7285">ChestController</text><line style="stroke:#181818;stroke-width:0.5;" x1="369.2043" x2="1047.2043" y1="824" y2="824"/><line style="stroke:#181818;stroke-width:0.5;" x1="369.2043" x2="1047.2043" y1="832" y2="832"/><ellipse cx="379.2043" cy="846.3047" fill="#84BE84" rx="3" ry="3" style="stroke:#038048;stroke-width:1.0;"/><text fill="#000000" font-family="sans-serif" font-size="14" lengthAdjust="spacing" textLength="654" x="388.2043" y="850.5332">ChestController(_chestSystemView:ChestSystemView, _chestListSO:ChestListSO, _pfitem:GameObject)</text><rect fill="#F24D5C" height="6" style="stroke:#C82930;stroke-width:1.0;" width="6" x="376.2043" y="860.9141"/><text fill="#000000" font-family="sans-serif" font-size="14" lengthAdjust="spacing" textLength="146" x="388.2043" y="868.1426">SettingUpChest() : void</text></g><!--class MonoBehaviour--><g id="elem_MonoBehaviour"><rect fill="#F1F1F1" height="48" id="MonoBehaviour" rx="2.5" ry="2.5" style="stroke:#181818;stroke-width:0.5;" width="131" x="1861.7043" y="7"/><ellipse cx="1876.7043" cy="23" fill="#ADD1B2" rx="11" ry="11" style="stroke:#181818;stroke-width:1.0;"/><path d="M1879.4699,18.875 Q1879.6262,18.6563 1879.8137,18.5469 Q1880.0012,18.4375 1880.2199,18.4375 Q1880.5949,18.4375 1880.8293,18.7031 Q1881.0637,18.9531 1881.0637,19.5625 L1881.0637,21.0156 Q1881.0637,21.625 1880.8293,21.8906 Q1880.5949,22.1563 1880.2199,22.1563 Q1879.8762,22.1563 1879.6731,21.9531 Q1879.4699,21.7656 1879.3606,21.25 Q1879.3137,20.8906 1879.1262,20.7031 Q1878.7981,20.3281 1878.1887,20.1094 Q1877.5793,19.8906 1876.9543,19.8906 Q1876.1887,19.8906 1875.5481,20.2188 Q1874.9231,20.5469 1874.4231,21.2969 Q1873.9387,22.0469 1873.9387,23.0781 L1873.9387,24.1719 Q1873.9387,25.4063 1874.8293,26.2344 Q1875.7199,27.0469 1877.3137,27.0469 Q1878.2512,27.0469 1878.9074,26.7969 Q1879.2981,26.6406 1879.7199,26.2031 Q1879.9856,25.9375 1880.1262,25.8594 Q1880.2824,25.7813 1880.4856,25.7813 Q1880.8137,25.7813 1881.0637,26.0469 Q1881.3293,26.2969 1881.3293,26.6406 Q1881.3293,26.9844 1880.9856,27.3906 Q1880.4856,27.9688 1879.6887,28.2969 Q1878.6106,28.75 1877.3137,28.75 Q1875.7981,28.75 1874.5949,28.125 Q1873.6106,27.625 1872.9231,26.5625 Q1872.2356,25.4844 1872.2356,24.2031 L1872.2356,23.0469 Q1872.2356,21.7188 1872.8449,20.5781 Q1873.4699,19.4219 1874.5637,18.8125 Q1875.6574,18.1875 1876.8918,18.1875 Q1877.6262,18.1875 1878.2668,18.3594 Q1878.9231,18.5156 1879.4699,18.875 Z " fill="#000000"/><text fill="#000000" font-family="sans-serif" font-size="14" lengthAdjust="spacing" textLength="99" x="1890.7043" y="28.7285">MonoBehaviour</text><line style="stroke:#181818;stroke-width:0.5;" x1="1862.7043" x2="1991.7043" y1="39" y2="39"/><line style="stroke:#181818;stroke-width:0.5;" x1="1862.7043" x2="1991.7043" y1="47" y2="47"/></g><!--class Sprite--><g id="elem_Sprite"><rect fill="#F1F1F1" height="48" id="Sprite" rx="2.5" ry="2.5" style="stroke:#181818;stroke-width:0.5;" width="69" x="2161.7043" y="809.5"/><ellipse cx="2176.7043" cy="825.5" fill="#ADD1B2" rx="11" ry="11" style="stroke:#181818;stroke-width:1.0;"/><path d="M2179.4699,821.375 Q2179.6262,821.1563 2179.8137,821.0469 Q2180.0012,820.9375 2180.2199,820.9375 Q2180.5949,820.9375 2180.8293,821.2031 Q2181.0637,821.4531 2181.0637,822.0625 L2181.0637,823.5156 Q2181.0637,824.125 2180.8293,824.3906 Q2180.5949,824.6563 2180.2199,824.6563 Q2179.8762,824.6563 2179.6731,824.4531 Q2179.4699,824.2656 2179.3606,823.75 Q2179.3137,823.3906 2179.1262,823.2031 Q2178.7981,822.8281 2178.1887,822.6094 Q2177.5793,822.3906 2176.9543,822.3906 Q2176.1887,822.3906 2175.5481,822.7188 Q2174.9231,823.0469 2174.4231,823.7969 Q2173.9387,824.5469 2173.9387,825.5781 L2173.9387,826.6719 Q2173.9387,827.9063 2174.8293,828.7344 Q2175.7199,829.5469 2177.3137,829.5469 Q2178.2512,829.5469 2178.9074,829.2969 Q2179.2981,829.1406 2179.7199,828.7031 Q2179.9856,828.4375 2180.1262,828.3594 Q2180.2824,828.2813 2180.4856,828.2813 Q2180.8137,828.2813 2181.0637,828.5469 Q2181.3293,828.7969 2181.3293,829.1406 Q2181.3293,829.4844 2180.9856,829.8906 Q2180.4856,830.4688 2179.6887,830.7969 Q2178.6106,831.25 2177.3137,831.25 Q2175.7981,831.25 2174.5949,830.625 Q2173.6106,830.125 2172.9231,829.0625 Q2172.2356,827.9844 2172.2356,826.7031 L2172.2356,825.5469 Q2172.2356,824.2188 2172.8449,823.0781 Q2173.4699,821.9219 2174.5637,821.3125 Q2175.6574,820.6875 2176.8918,820.6875 Q2177.6262,820.6875 2178.2668,820.8594 Q2178.9231,821.0156 2179.4699,821.375 Z " fill="#000000"/><text fill="#000000" font-family="sans-serif" font-size="14" lengthAdjust="spacing" textLength="37" x="2190.7043" y="831.2285">Sprite</text><line style="stroke:#181818;stroke-width:0.5;" x1="2162.7043" x2="2229.7043" y1="841.5" y2="841.5"/><line style="stroke:#181818;stroke-width:0.5;" x1="2162.7043" x2="2229.7043" y1="849.5" y2="849.5"/></g><!--class TextMeshProUGUI--><g id="elem_TextMeshProUGUI"><rect fill="#F1F1F1" height="48" id="TextMeshProUGUI" rx="2.5" ry="2.5" style="stroke:#181818;stroke-width:0.5;" width="147" x="2405.7043" y="1149"/><ellipse cx="2420.7043" cy="1165" fill="#ADD1B2" rx="11" ry="11" style="stroke:#181818;stroke-width:1.0;"/><path d="M2423.4699,1160.875 Q2423.6262,1160.6563 2423.8137,1160.5469 Q2424.0012,1160.4375 2424.2199,1160.4375 Q2424.5949,1160.4375 2424.8293,1160.7031 Q2425.0637,1160.9531 2425.0637,1161.5625 L2425.0637,1163.0156 Q2425.0637,1163.625 2424.8293,1163.8906 Q2424.5949,1164.1563 2424.2199,1164.1563 Q2423.8762,1164.1563 2423.6731,1163.9531 Q2423.4699,1163.7656 2423.3606,1163.25 Q2423.3137,1162.8906 2423.1262,1162.7031 Q2422.7981,1162.3281 2422.1887,1162.1094 Q2421.5793,1161.8906 2420.9543,1161.8906 Q2420.1887,1161.8906 2419.5481,1162.2188 Q2418.9231,1162.5469 2418.4231,1163.2969 Q2417.9387,1164.0469 2417.9387,1165.0781 L2417.9387,1166.1719 Q2417.9387,1167.4063 2418.8293,1168.2344 Q2419.7199,1169.0469 2421.3137,1169.0469 Q2422.2512,1169.0469 2422.9074,1168.7969 Q2423.2981,1168.6406 2423.7199,1168.2031 Q2423.9856,1167.9375 2424.1262,1167.8594 Q2424.2824,1167.7813 2424.4856,1167.7813 Q2424.8137,1167.7813 2425.0637,1168.0469 Q2425.3293,1168.2969 2425.3293,1168.6406 Q2425.3293,1168.9844 2424.9856,1169.3906 Q2424.4856,1169.9688 2423.6887,1170.2969 Q2422.6106,1170.75 2421.3137,1170.75 Q2419.7981,1170.75 2418.5949,1170.125 Q2417.6106,1169.625 2416.9231,1168.5625 Q2416.2356,1167.4844 2416.2356,1166.2031 L2416.2356,1165.0469 Q2416.2356,1163.7188 2416.8449,1162.5781 Q2417.4699,1161.4219 2418.5637,1160.8125 Q2419.6574,1160.1875 2420.8918,1160.1875 Q2421.6262,1160.1875 2422.2668,1160.3594 Q2422.9231,1160.5156 2423.4699,1160.875 Z " fill="#000000"/><text fill="#000000" font-family="sans-serif" font-size="14" lengthAdjust="spacing" textLength="115" x="2434.7043" y="1170.7285">TextMeshProUGUI</text><line style="stroke:#181818;stroke-width:0.5;" x1="2406.7043" x2="2551.7043" y1="1181" y2="1181"/><line style="stroke:#181818;stroke-width:0.5;" x1="2406.7043" x2="2551.7043" y1="1189" y2="1189"/></g><!--class Button--><g id="elem_Button"><rect fill="#F1F1F1" height="48" id="Button" rx="2.5" ry="2.5" style="stroke:#181818;stroke-width:0.5;" width="73" x="2135.7043" y="1149"/><ellipse cx="2150.7043" cy="1165" fill="#ADD1B2" rx="11" ry="11" style="stroke:#181818;stroke-width:1.0;"/><path d="M2153.4699,1160.875 Q2153.6262,1160.6563 2153.8137,1160.5469 Q2154.0012,1160.4375 2154.2199,1160.4375 Q2154.5949,1160.4375 2154.8293,1160.7031 Q2155.0637,1160.9531 2155.0637,1161.5625 L2155.0637,1163.0156 Q2155.0637,1163.625 2154.8293,1163.8906 Q2154.5949,1164.1563 2154.2199,1164.1563 Q2153.8762,1164.1563 2153.6731,1163.9531 Q2153.4699,1163.7656 2153.3606,1163.25 Q2153.3137,1162.8906 2153.1262,1162.7031 Q2152.7981,1162.3281 2152.1887,1162.1094 Q2151.5793,1161.8906 2150.9543,1161.8906 Q2150.1887,1161.8906 2149.5481,1162.2188 Q2148.9231,1162.5469 2148.4231,1163.2969 Q2147.9387,1164.0469 2147.9387,1165.0781 L2147.9387,1166.1719 Q2147.9387,1167.4063 2148.8293,1168.2344 Q2149.7199,1169.0469 2151.3137,1169.0469 Q2152.2512,1169.0469 2152.9074,1168.7969 Q2153.2981,1168.6406 2153.7199,1168.2031 Q2153.9856,1167.9375 2154.1262,1167.8594 Q2154.2824,1167.7813 2154.4856,1167.7813 Q2154.8137,1167.7813 2155.0637,1168.0469 Q2155.3293,1168.2969 2155.3293,1168.6406 Q2155.3293,1168.9844 2154.9856,1169.3906 Q2154.4856,1169.9688 2153.6887,1170.2969 Q2152.6106,1170.75 2151.3137,1170.75 Q2149.7981,1170.75 2148.5949,1170.125 Q2147.6106,1169.625 2146.9231,1168.5625 Q2146.2356,1167.4844 2146.2356,1166.2031 L2146.2356,1165.0469 Q2146.2356,1163.7188 2146.8449,1162.5781 Q2147.4699,1161.4219 2148.5637,1160.8125 Q2149.6574,1160.1875 2150.8918,1160.1875 Q2151.6262,1160.1875 2152.2668,1160.3594 Q2152.9231,1160.5156 2153.4699,1160.875 Z " fill="#000000"/><text fill="#000000" font-family="sans-serif" font-size="14" lengthAdjust="spacing" textLength="41" x="2164.7043" y="1170.7285">Button</text><line style="stroke:#181818;stroke-width:0.5;" x1="2136.7043" x2="2207.7043" y1="1181" y2="1181"/><line style="stroke:#181818;stroke-width:0.5;" x1="2136.7043" x2="2207.7043" y1="1189" y2="1189"/></g><!--class List`1--><g id="elem_List`1"><rect codeLine="48" fill="#F1F1F1" height="48" id="List`1" rx="2.5" ry="2.5" style="stroke:#181818;stroke-width:0.5;" width="78" x="1302.2043" y="988"/><ellipse cx="1317.2043" cy="1004" fill="#ADD1B2" rx="11" ry="11" style="stroke:#181818;stroke-width:1.0;"/><path d="M1319.9699,999.875 Q1320.1262,999.6563 1320.3137,999.5469 Q1320.5012,999.4375 1320.7199,999.4375 Q1321.0949,999.4375 1321.3293,999.7031 Q1321.5637,999.9531 1321.5637,1000.5625 L1321.5637,1002.0156 Q1321.5637,1002.625 1321.3293,1002.8906 Q1321.0949,1003.1563 1320.7199,1003.1563 Q1320.3762,1003.1563 1320.1731,1002.9531 Q1319.9699,1002.7656 1319.8606,1002.25 Q1319.8137,1001.8906 1319.6262,1001.7031 Q1319.2981,1001.3281 1318.6887,1001.1094 Q1318.0793,1000.8906 1317.4543,1000.8906 Q1316.6887,1000.8906 1316.0481,1001.2188 Q1315.4231,1001.5469 1314.9231,1002.2969 Q1314.4387,1003.0469 1314.4387,1004.0781 L1314.4387,1005.1719 Q1314.4387,1006.4063 1315.3293,1007.2344 Q1316.2199,1008.0469 1317.8137,1008.0469 Q1318.7512,1008.0469 1319.4074,1007.7969 Q1319.7981,1007.6406 1320.2199,1007.2031 Q1320.4856,1006.9375 1320.6262,1006.8594 Q1320.7824,1006.7813 1320.9856,1006.7813 Q1321.3137,1006.7813 1321.5637,1007.0469 Q1321.8293,1007.2969 1321.8293,1007.6406 Q1321.8293,1007.9844 1321.4856,1008.3906 Q1320.9856,1008.9688 1320.1887,1009.2969 Q1319.1106,1009.75 1317.8137,1009.75 Q1316.2981,1009.75 1315.0949,1009.125 Q1314.1106,1008.625 1313.4231,1007.5625 Q1312.7356,1006.4844 1312.7356,1005.2031 L1312.7356,1004.0469 Q1312.7356,1002.7188 1313.3449,1001.5781 Q1313.9699,1000.4219 1315.0637,999.8125 Q1316.1574,999.1875 1317.3918,999.1875 Q1318.1262,999.1875 1318.7668,999.3594 Q1319.4231,999.5156 1319.9699,999.875 Z " fill="#000000"/><text fill="#000000" font-family="sans-serif" font-size="14" lengthAdjust="spacing" textLength="35" x="1331.2043" y="1009.7285">List`1</text><rect fill="#FFFFFF" height="17.0938" style="stroke:#181818;stroke-width:1.0;stroke-dasharray:2.0,2.0;" width="9" x="1374.2043" y="985"/><text fill="#000000" font-family="sans-serif" font-size="12" font-style="italic" lengthAdjust="spacing" textLength="7" x="1375.2043" y="998.457">T</text><line style="stroke:#181818;stroke-width:0.5;" x1="1303.2043" x2="1379.2043" y1="1020" y2="1020"/><line style="stroke:#181818;stroke-width:0.5;" x1="1303.2043" x2="1379.2043" y1="1028" y2="1028"/></g><!--class ScriptableObject--><g id="elem_ScriptableObject"><rect fill="#F1F1F1" height="48" id="ScriptableObject" rx="2.5" ry="2.5" style="stroke:#181818;stroke-width:0.5;" width="136" x="1083.2043" y="809.5"/><ellipse cx="1098.2043" cy="825.5" fill="#ADD1B2" rx="11" ry="11" style="stroke:#181818;stroke-width:1.0;"/><path d="M1100.9699,821.375 Q1101.1262,821.1563 1101.3137,821.0469 Q1101.5012,820.9375 1101.7199,820.9375 Q1102.0949,820.9375 1102.3293,821.2031 Q1102.5637,821.4531 1102.5637,822.0625 L1102.5637,823.5156 Q1102.5637,824.125 1102.3293,824.3906 Q1102.0949,824.6563 1101.7199,824.6563 Q1101.3762,824.6563 1101.1731,824.4531 Q1100.9699,824.2656 1100.8606,823.75 Q1100.8137,823.3906 1100.6262,823.2031 Q1100.2981,822.8281 1099.6887,822.6094 Q1099.0793,822.3906 1098.4543,822.3906 Q1097.6887,822.3906 1097.0481,822.7188 Q1096.4231,823.0469 1095.9231,823.7969 Q1095.4387,824.5469 1095.4387,825.5781 L1095.4387,826.6719 Q1095.4387,827.9063 1096.3293,828.7344 Q1097.2199,829.5469 1098.8137,829.5469 Q1099.7512,829.5469 1100.4074,829.2969 Q1100.7981,829.1406 1101.2199,828.7031 Q1101.4856,828.4375 1101.6262,828.3594 Q1101.7824,828.2813 1101.9856,828.2813 Q1102.3137,828.2813 1102.5637,828.5469 Q1102.8293,828.7969 1102.8293,829.1406 Q1102.8293,829.4844 1102.4856,829.8906 Q1101.9856,830.4688 1101.1887,830.7969 Q1100.1106,831.25 1098.8137,831.25 Q1097.2981,831.25 1096.0949,830.625 Q1095.1106,830.125 1094.4231,829.0625 Q1093.7356,827.9844 1093.7356,826.7031 L1093.7356,825.5469 Q1093.7356,824.2188 1094.3449,823.0781 Q1094.9699,821.9219 1096.0637,821.3125 Q1097.1574,820.6875 1098.3918,820.6875 Q1099.1262,820.6875 1099.7668,820.8594 Q1100.4231,821.0156 1100.9699,821.375 Z " fill="#000000"/><text fill="#000000" font-family="sans-serif" font-size="14" lengthAdjust="spacing" textLength="104" x="1112.2043" y="831.2285">ScriptableObject</text><line style="stroke:#181818;stroke-width:0.5;" x1="1084.2043" x2="1218.2043" y1="841.5" y2="841.5"/><line style="stroke:#181818;stroke-width:0.5;" x1="1084.2043" x2="1218.2043" y1="849.5" y2="849.5"/></g><!--class InfoHolderController--><g id="elem_InfoHolderController"><rect codeLine="64" fill="#F1F1F1" height="83.2188" id="InfoHolderController" rx="2.5" ry="2.5" style="stroke:#181818;stroke-width:0.5;" width="370" x="1396.2043" y="792"/><ellipse cx="1513.9543" cy="808" fill="#ADD1B2" rx="11" ry="11" style="stroke:#181818;stroke-width:1.0;"/><path d="M1516.7199,803.875 Q1516.8762,803.6563 1517.0637,803.5469 Q1517.2512,803.4375 1517.4699,803.4375 Q1517.8449,803.4375 1518.0793,803.7031 Q1518.3137,803.9531 1518.3137,804.5625 L1518.3137,806.0156 Q1518.3137,806.625 1518.0793,806.8906 Q1517.8449,807.1563 1517.4699,807.1563 Q1517.1262,807.1563 1516.9231,806.9531 Q1516.7199,806.7656 1516.6106,806.25 Q1516.5637,805.8906 1516.3762,805.7031 Q1516.0481,805.3281 1515.4387,805.1094 Q1514.8293,804.8906 1514.2043,804.8906 Q1513.4387,804.8906 1512.7981,805.2188 Q1512.1731,805.5469 1511.6731,806.2969 Q1511.1887,807.0469 1511.1887,808.0781 L1511.1887,809.1719 Q1511.1887,810.4063 1512.0793,811.2344 Q1512.9699,812.0469 1514.5637,812.0469 Q1515.5012,812.0469 1516.1574,811.7969 Q1516.5481,811.6406 1516.9699,811.2031 Q1517.2356,810.9375 1517.3762,810.8594 Q1517.5324,810.7813 1517.7356,810.7813 Q1518.0637,810.7813 1518.3137,811.0469 Q1518.5793,811.2969 1518.5793,811.6406 Q1518.5793,811.9844 1518.2356,812.3906 Q1517.7356,812.9688 1516.9387,813.2969 Q1515.8606,813.75 1514.5637,813.75 Q1513.0481,813.75 1511.8449,813.125 Q1510.8606,812.625 1510.1731,811.5625 Q1509.4856,810.4844 1509.4856,809.2031 L1509.4856,808.0469 Q1509.4856,806.7188 1510.0949,805.5781 Q1510.7199,804.4219 1511.8137,803.8125 Q1512.9074,803.1875 1514.1418,803.1875 Q1514.8762,803.1875 1515.5168,803.3594 Q1516.1731,803.5156 1516.7199,803.875 Z " fill="#000000"/><text fill="#000000" font-family="sans-serif" font-size="14" lengthAdjust="spacing" textLength="126" x="1534.4543" y="813.7285">InfoHolderController</text><line style="stroke:#181818;stroke-width:0.5;" x1="1397.2043" x2="1765.2043" y1="824" y2="824"/><line style="stroke:#181818;stroke-width:0.5;" x1="1397.2043" x2="1765.2043" y1="832" y2="832"/><ellipse cx="1407.2043" cy="846.3047" fill="#84BE84" rx="3" ry="3" style="stroke:#038048;stroke-width:1.0;"/><text fill="#000000" font-family="sans-serif" font-size="14" lengthAdjust="spacing" textLength="344" x="1416.2043" y="850.5332">InfoHolderController(_inforHolderView:InforHolderView)</text><ellipse cx="1407.2043" cy="863.9141" fill="#84BE84" rx="3" ry="3" style="stroke:#038048;stroke-width:1.0;"/><text fill="#000000" font-family="sans-serif" font-size="14" lengthAdjust="spacing" textLength="291" x="1416.2043" y="868.1426">SetButtonPanelStatus(statusPanel:bool) : void</text></g><!--class RectTransform--><g id="elem_RectTransform"><rect fill="#F1F1F1" height="48" id="RectTransform" rx="2.5" ry="2.5" style="stroke:#181818;stroke-width:0.5;" width="126" x="2244.2043" y="1149"/><ellipse cx="2259.2043" cy="1165" fill="#ADD1B2" rx="11" ry="11" style="stroke:#181818;stroke-width:1.0;"/><path d="M2261.9699,1160.875 Q2262.1262,1160.6563 2262.3137,1160.5469 Q2262.5012,1160.4375 2262.7199,1160.4375 Q2263.0949,1160.4375 2263.3293,1160.7031 Q2263.5637,1160.9531 2263.5637,1161.5625 L2263.5637,1163.0156 Q2263.5637,1163.625 2263.3293,1163.8906 Q2263.0949,1164.1563 2262.7199,1164.1563 Q2262.3762,1164.1563 2262.1731,1163.9531 Q2261.9699,1163.7656 2261.8606,1163.25 Q2261.8137,1162.8906 2261.6262,1162.7031 Q2261.2981,1162.3281 2260.6887,1162.1094 Q2260.0793,1161.8906 2259.4543,1161.8906 Q2258.6887,1161.8906 2258.0481,1162.2188 Q2257.4231,1162.5469 2256.9231,1163.2969 Q2256.4387,1164.0469 2256.4387,1165.0781 L2256.4387,1166.1719 Q2256.4387,1167.4063 2257.3293,1168.2344 Q2258.2199,1169.0469 2259.8137,1169.0469 Q2260.7512,1169.0469 2261.4074,1168.7969 Q2261.7981,1168.6406 2262.2199,1168.2031 Q2262.4856,1167.9375 2262.6262,1167.8594 Q2262.7824,1167.7813 2262.9856,1167.7813 Q2263.3137,1167.7813 2263.5637,1168.0469 Q2263.8293,1168.2969 2263.8293,1168.6406 Q2263.8293,1168.9844 2263.4856,1169.3906 Q2262.9856,1169.9688 2262.1887,1170.2969 Q2261.1106,1170.75 2259.8137,1170.75 Q2258.2981,1170.75 2257.0949,1170.125 Q2256.1106,1169.625 2255.4231,1168.5625 Q2254.7356,1167.4844 2254.7356,1166.2031 L2254.7356,1165.0469 Q2254.7356,1163.7188 2255.3449,1162.5781 Q2255.9699,1161.4219 2257.0637,1160.8125 Q2258.1574,1160.1875 2259.3918,1160.1875 Q2260.1262,1160.1875 2260.7668,1160.3594 Q2261.4231,1160.5156 2261.9699,1160.875 Z " fill="#000000"/><text fill="#000000" font-family="sans-serif" font-size="14" lengthAdjust="spacing" textLength="94" x="2273.2043" y="1170.7285">RectTransform</text><line style="stroke:#181818;stroke-width:0.5;" x1="2245.2043" x2="2369.2043" y1="1181" y2="1181"/><line style="stroke:#181818;stroke-width:0.5;" x1="2245.2043" x2="2369.2043" y1="1189" y2="1189"/></g><!--reverse link GenericMonoSingleton`1 to GameService--><g id="link_GenericMonoSingleton`1_GameService"><path codeLine="11" d="M1637.7448,233.0187 C1630.7148,251.3687 1629.0243,255.8 1621.3143,275.95 " fill="none" id="GenericMonoSingleton`1-backto-GameService" style="stroke:#181818;stroke-width:1.0;"/><polygon fill="none" points="1644.1843,216.21,1632.1419,230.8722,1643.3477,235.1652,1644.1843,216.21" style="stroke:#181818;stroke-width:1.0;"/><text fill="#000000" font-family="sans-serif" font-size="13" lengthAdjust="spacing" textLength="93" x="1542.7896" y="237.2609">&lt;GameService&gt;</text></g><!--link GameService to ChestService--><g id="link_GameService_ChestService"><path codeLine="12" d="M1445.2443,396.56 C1279.2943,444.62 1017.0075,520.571 853.9875,567.781 " fill="none" id="GameService-to-ChestService" style="stroke:#181818;stroke-width:1.0;"/><polygon fill="#181818" points="848.2243,569.45,857.9818,570.7886,853.027,568.0592,855.7564,563.1044,848.2243,569.45" style="stroke:#181818;stroke-width:1.0;"/><text fill="#000000" font-family="sans-serif" font-size="13" lengthAdjust="spacing" textLength="74" x="791.287" y="558.7494">chestService</text></g><!--link GameService to InfoHolderService--><g id="link_GameService_InfoHolderService"><path codeLine="13" d="M1592.2043,430.12 C1592.2043,475.81 1592.2043,526.11 1592.2043,563.43 " fill="none" id="GameService-to-InfoHolderService" style="stroke:#181818;stroke-width:1.0;"/><polygon fill="#181818" points="1592.2043,569.43,1596.2043,560.43,1592.2043,564.43,1588.2043,560.43,1592.2043,569.43" style="stroke:#181818;stroke-width:1.0;"/><text fill="#000000" font-family="sans-serif" font-size="13" lengthAdjust="spacing" textLength="99" x="1485.0059" y="558.7261">infoHolderService</text></g><!--link GameService to ChestSystemView--><g id="link_GameService_ChestSystemView"><path codeLine="14" d="M1445.5643,359.68 C1118.6043,373.67 351.5843,414.24 263.2043,490 C109.0243,622.18 118.119,899.2481 124.549,981.9081 " fill="none" id="GameService-to-ChestSystemView" style="stroke:#181818;stroke-width:1.0;"/><polygon fill="#181818" points="125.0143,987.89,128.3043,978.6069,124.6265,982.9051,120.3284,979.2273,125.0143,987.89" style="stroke:#181818;stroke-width:1.0;"/><text fill="#000000" font-family="sans-serif" font-size="13" lengthAdjust="spacing" textLength="105" x="6" y="977.202">chestSystemView</text></g><!--link GameService to InforHolderView--><g id="link_GameService_InforHolderView"><path codeLine="15" d="M1726.4243,430.04 C1749.0343,447.45 1770.5343,467.55 1787.2043,490 C1895.6543,636.06 1795.0943,748.88 1926.2043,875 C1987.0743,933.55 2069.6963,965.8745 2144.0363,985.1445 " fill="none" id="GameService-to-InforHolderView" style="stroke:#181818;stroke-width:1.0;"/><polygon fill="#181818" points="2149.8443,986.65,2142.1359,980.5197,2145.0043,985.3954,2140.1286,988.2637,2149.8443,986.65" style="stroke:#181818;stroke-width:1.0;"/><text fill="#000000" font-family="sans-serif" font-size="13" lengthAdjust="spacing" textLength="89" x="2053.0877" y="999.4278">inforHolderView</text></g><!--link GameService to GameObject--><g id="link_GameService_GameObject"><path codeLine="16" d="M1445.4343,360.34 C1135.3943,375.11 435.7743,416.3 358.2043,490 C215.4343,625.66 282.1231,899.9233 306.2631,982.0933 " fill="none" id="GameService-to-GameObject" style="stroke:#181818;stroke-width:1.0;"/><polygon fill="#181818" points="307.9543,987.85,309.2553,978.0874,306.545,983.0527,301.5797,980.3424,307.9543,987.85" style="stroke:#181818;stroke-width:1.0;"/><text fill="#000000" font-family="sans-serif" font-size="13" lengthAdjust="spacing" textLength="35" x="266.6121" y="977.1517">pfItem</text></g><!--link GameService to ChestListSO--><g id="link_GameService_ChestListSO"><path codeLine="17" d="M1457.6743,430.18 C1435.1543,447.56 1413.7743,467.6 1397.2043,490 C1290.3343,634.55 1338.1543,707.38 1273.2043,875 C1257.5543,915.41 1238.5741,955.5819 1225.4441,982.3819 " fill="none" id="GameService-to-ChestListSO" style="stroke:#181818;stroke-width:1.0;"/><polygon fill="#181818" points="1222.8043,987.77,1230.356,981.4477,1225.0041,983.2799,1223.1719,977.928,1222.8043,987.77" style="stroke:#181818;stroke-width:1.0;"/><text fill="#000000" font-family="sans-serif" font-size="13" lengthAdjust="spacing" textLength="72" x="1144.5518" y="977.0512">chestListSO</text></g><!--link GameService to ChestInfoSO--><g id="link_GameService_ChestInfoSO"><path codeLine="18" d="M1738.8143,399.89 C1786.1443,420.88 1835.3343,450.19 1870.2043,490 C1944.9443,575.31 1908.6843,626.85 1951.2043,732 C1962.1543,759.07 1974.1629,783.8227 1984.4129,803.9627 " fill="none" id="GameService-to-ChestInfoSO" style="stroke:#181818;stroke-width:1.0;"/><polygon fill="#181818" points="1987.1343,809.31,1986.617,799.4747,1984.8664,804.8539,1979.4873,803.1033,1987.1343,809.31" style="stroke:#181818;stroke-width:1.0;"/><text fill="#000000" font-family="sans-serif" font-size="13" lengthAdjust="spacing" textLength="71" x="1903.9445" y="798.6015">chestInfoSO</text></g><!--link GameService to ChestItem--><g id="link_GameService_ChestItem"><path codeLine="19" d="M1738.8943,404.87 C1802.1843,428.42 1876.4043,458.21 1941.2043,490 C1950.1143,494.37 1953.8424,496.1911 1962.9024,500.9911 " fill="none" id="GameService-to-ChestItem" style="stroke:#181818;stroke-width:1.0;"/><polygon fill="#181818" points="1968.2043,503.8,1962.1241,496.052,1963.7861,501.4592,1958.3789,503.1212,1968.2043,503.8" style="stroke:#181818;stroke-width:1.0;"/><text fill="#000000" font-family="sans-serif" font-size="13" lengthAdjust="spacing" textLength="57" x="1903.3332" y="496.8078">chestItem</text></g><!--link ChestController to ChestSystemView--><g id="link_ChestController_ChestSystemView"><path codeLine="24" d="M438.0543,875.01 C372.4843,889.64 303.6143,909.17 242.2043,935 C210.4443,948.36 182.7923,967.0977 160.5123,984.1177 " fill="none" id="ChestController-to-ChestSystemView" style="stroke:#181818;stroke-width:1.0;"/><polygon fill="#181818" points="155.7443,987.76,165.3245,985.4752,159.7176,984.7247,160.4681,979.1179,155.7443,987.76" style="stroke:#181818;stroke-width:1.0;"/><text fill="#000000" font-family="sans-serif" font-size="13" lengthAdjust="spacing" textLength="105" x="177.6852" y="976.8752">chestSystemView</text></g><!--link ChestController to ChestListSO--><g id="link_ChestController_ChestListSO"><path codeLine="25" d="M823.9243,875.1 C927.9143,911.6 1070.4927,961.6234 1150.0327,989.5334 " fill="none" id="ChestController-to-ChestListSO" style="stroke:#181818;stroke-width:1.0;"/><polygon fill="#181818" points="1155.6943,991.52,1148.5264,984.7657,1150.9763,989.8645,1145.8776,992.3145,1155.6943,991.52" style="stroke:#181818;stroke-width:1.0;"/><text fill="#000000" font-family="sans-serif" font-size="13" lengthAdjust="spacing" textLength="72" x="1075.8302" y="1003.9577">chestListSO</text></g><!--link ChestController to GameObject--><g id="link_ChestController_GameObject"><path codeLine="26" d="M617.5543,875.21 C539.6843,910.18 435.6877,956.892 372.0677,985.462 " fill="none" id="ChestController-to-GameObject" style="stroke:#181818;stroke-width:1.0;"/><polygon fill="#181818" points="366.5943,987.92,376.4431,987.882,371.1555,985.8717,373.1658,980.5841,366.5943,987.92" style="stroke:#181818;stroke-width:1.0;"/><text fill="#000000" font-family="sans-serif" font-size="13" lengthAdjust="spacing" textLength="38" x="378.6926" y="979.9316">pfITem</text></g><!--reverse link MonoBehaviour to ChestItem--><g id="link_MonoBehaviour_ChestItem"><path codeLine="40" d="M1941.9745,71.89 C1968.5045,143.54 2044.7043,349.34 2096.7443,489.9 " fill="none" id="MonoBehaviour-backto-ChestItem" style="stroke:#181818;stroke-width:1.0;"/><polygon fill="none" points="1935.7243,55.01,1936.3478,73.9734,1947.6012,69.8066,1935.7243,55.01" style="stroke:#181818;stroke-width:1.0;"/></g><!--link ChestItem to Sprite--><g id="link_ChestItem_Sprite"><path codeLine="41" d="M2171.2043,732.25 C2178.5443,761.68 2184.1913,784.3286 2188.9413,803.3586 " fill="none" id="ChestItem-to-Sprite" style="stroke:#181818;stroke-width:1.0;"/><polygon fill="#181818" points="2190.3943,809.18,2192.0957,799.4792,2189.1834,804.3288,2184.3338,801.4166,2190.3943,809.18" style="stroke:#181818;stroke-width:1.0;"/><text fill="#000000" font-family="sans-serif" font-size="13" lengthAdjust="spacing" textLength="58" x="2123.9094" y="798.84">iconSprite</text></g><!--link ChestItem to TextMeshProUGUI--><g id="link_ChestItem_TextMeshProUGUI"><path codeLine="42" d="M2273.8043,732.33 C2330.7343,787.81 2392.4143,858.34 2429.2043,935 C2463.8143,1007.09 2464.2627,1098.8198 2469.9727,1142.8498 " fill="none" id="ChestItem-to-TextMeshProUGUI" style="stroke:#181818;stroke-width:1.0;"/><polygon fill="#181818" points="2470.7443,1148.8,2473.5536,1139.3603,2470.1013,1143.8415,2465.6201,1140.3892,2470.7443,1148.8" style="stroke:#181818;stroke-width:1.0;"/><text fill="#000000" font-family="sans-serif" font-size="13" lengthAdjust="spacing" textLength="54" x="2407.6577" y="1138.0889">textTimer</text></g><!--link ChestItem to TextMeshProUGUI--><g id="link_ChestItem_TextMeshProUGUI"><path codeLine="43" d="M2306.0043,732.33 C2365.7343,787.81 2427.4143,858.34 2464.2043,935 C2498.8143,1007.09 2501.2589,1098.8963 2492.0789,1142.9263 " fill="none" id="ChestItem-to-TextMeshProUGUI-1" style="stroke:#181818;stroke-width:1.0;"/><polygon fill="#181818" points="2490.8543,1148.8,2496.6071,1140.8059,2491.8748,1143.9053,2488.7755,1139.173,2490.8543,1148.8" style="stroke:#181818;stroke-width:1.0;"/><text fill="#000000" font-family="sans-serif" font-size="13" lengthAdjust="spacing" textLength="66" x="2558.9456" y="1137.8582">chestName</text></g><!--link ChestItem to Button--><g id="link_ChestItem_Button"><path codeLine="44" d="M2123.7743,732.17 C2113.3043,829.58 2106.5943,969.77 2133.2043,1089 C2137.9643,1110.29 2145.8557,1127.3289 2154.9057,1143.4389 " fill="none" id="ChestItem-to-Button" style="stroke:#181818;stroke-width:1.0;"/><polygon fill="#181818" points="2157.8443,1148.67,2156.9238,1138.8643,2155.3954,1144.3107,2149.949,1142.7824,2157.8443,1148.67" style="stroke:#181818;stroke-width:1.0;"/><text fill="#000000" font-family="sans-serif" font-size="13" lengthAdjust="spacing" textLength="52" x="2096.0066" y="1138.3275">onButton</text></g><!--link ChestItem to ChestInfoSO--><g id="link_ChestItem_ChestInfoSO"><path codeLine="45" d="M2063.7643,732.25 C2044.8143,761.68 2029.7338,785.1061 2017.4738,804.1361 " fill="none" id="ChestItem-to-ChestInfoSO" style="stroke:#181818;stroke-width:1.0;"/><polygon fill="#181818" points="2014.2243,809.18,2022.4612,803.7805,2016.9322,804.9768,2015.736,799.4478,2014.2243,809.18" style="stroke:#181818;stroke-width:1.0;"/><text fill="#000000" font-family="sans-serif" font-size="13" lengthAdjust="spacing" textLength="71" x="2026.5386" y="798.84">chestInfoSO</text></g><!--reverse link ScriptableObject to ChestListSO--><g id="link_ScriptableObject_ChestListSO"><path codeLine="50" d="M1164.8476,874.6122 C1176.3476,908.4422 1191.8643,954.09 1203.3643,987.92 " fill="none" id="ScriptableObject-backto-ChestListSO" style="stroke:#181818;stroke-width:1.0;"/><polygon fill="none" points="1159.0543,857.57,1159.1668,876.5433,1170.5283,872.6812,1159.0543,857.57" style="stroke:#181818;stroke-width:1.0;"/></g><!--link ChestListSO to List`1--><g id="link_ChestListSO_List`1"><path codeLine="51" d="M1278.7759,1030.5794 C1290.4959,1031.5194 1284.3936,1031.0252 1296.1136,1028.4552 " fill="none" id="ChestListSO-List`1" style="stroke:#181818;stroke-width:1.0;"/><polygon fill="none" points="1266.8143,1029.62,1272.4753,1034.0869,1278.7759,1030.5794,1273.1149,1026.1125,1266.8143,1029.62" style="stroke:#181818;stroke-width:1.0;"/><polygon fill="#181818" points="1301.9743,1027.17,1292.3264,1025.1906,1297.0904,1028.241,1294.04,1033.0049,1301.9743,1027.17" style="stroke:#181818;stroke-width:1.0;"/><text fill="#000000" font-family="sans-serif" font-size="13" lengthAdjust="spacing" textLength="167" x="1333.5167" y="1057.299">chestInfoSOs&lt;ChestInfoSO&gt;</text></g><!--link ChestListSO to List`1--><g id="link_ChestListSO_List`1"><path codeLine="52" d="M1266.8143,994.38 C1278.5343,993.44 1284.3936,992.9748 1296.1136,995.5448 " fill="none" id="ChestListSO-to-List`1" style="stroke:#181818;stroke-width:1.0;"/><polygon fill="#181818" points="1301.9743,996.83,1294.04,990.9951,1297.0904,995.759,1292.3264,998.8094,1301.9743,996.83" style="stroke:#181818;stroke-width:1.0;"/><text fill="#000000" font-family="sans-serif" font-size="13" lengthAdjust="spacing" textLength="183" x="1340.5234" y="977.3669">ChestInfoSOList&lt;ChestInfoSO&gt;</text></g><!--link ChestService to ChestController--><g id="link_ChestService_ChestController"><path codeLine="57" d="M708.2043,652.7 C708.2043,692.27 708.2043,746.05 708.2043,785.66 " fill="none" id="ChestService-to-ChestController" style="stroke:#181818;stroke-width:1.0;"/><polygon fill="#181818" points="708.2043,791.66,712.2043,782.66,708.2043,786.66,704.2043,782.66,708.2043,791.66" style="stroke:#181818;stroke-width:1.0;"/><text fill="#000000" font-family="sans-serif" font-size="13" lengthAdjust="spacing" textLength="87" x="614.2715" y="781.2225">chestController</text></g><!--link ChestService to ChestListSO--><g id="link_ChestService_ChestListSO"><path codeLine="58" d="M1025.7843,652.6 C1107.3943,679.03 1186.1843,722.1 1236.2043,792 C1278.9643,851.75 1246.099,939.6405 1225.709,982.5605 " fill="none" id="ChestService-to-ChestListSO" style="stroke:#181818;stroke-width:1.0;"/><polygon fill="#181818" points="1223.1343,987.98,1230.6093,981.5672,1225.2799,983.4637,1223.3833,978.1343,1223.1343,987.98" style="stroke:#181818;stroke-width:1.0;"/><text fill="#000000" font-family="sans-serif" font-size="13" lengthAdjust="spacing" textLength="72" x="1235.0892" y="977.1275">chestListSO</text></g><!--link ChestService to ChestSystemView--><g id="link_ChestService_ChestSystemView"><path codeLine="59" d="M580.6843,652.65 C498.1243,682.86 391.1443,729.63 309.2043,792 C233.4843,849.64 171.939,939.3475 144.469,982.8275 " fill="none" id="ChestService-to-ChestSystemView" style="stroke:#181818;stroke-width:1.0;"/><polygon fill="#181818" points="141.2643,987.9,149.453,982.4278,143.9349,983.6729,142.6897,978.1548,141.2643,987.9" style="stroke:#181818;stroke-width:1.0;"/><text fill="#000000" font-family="sans-serif" font-size="13" lengthAdjust="spacing" textLength="105" x="158.1572" y="977.1519">chestSystemView</text></g><!--link ChestService to GameObject--><g id="link_ChestService_GameObject"><path codeLine="60" d="M556.4643,652.53 C482.9543,679.96 400.0143,723.93 350.2043,792 C306.5543,851.66 308.1655,939.0433 311.9655,981.9933 " fill="none" id="ChestService-to-GameObject" style="stroke:#181818;stroke-width:1.0;"/><polygon fill="#181818" points="312.4943,987.97,315.6856,978.6525,312.0537,982.9895,307.7167,979.3575,312.4943,987.97" style="stroke:#181818;stroke-width:1.0;"/><text fill="#000000" font-family="sans-serif" font-size="13" lengthAdjust="spacing" textLength="35" x="316.2843" y="977.3025">pfItem</text></g><!--reverse link MonoBehaviour to ChestSystemView--><g id="link_MonoBehaviour_ChestSystemView"><path codeLine="63" d="M1843.7001,37.1051 C1509.7601,58.2051 31.2043,162.19 31.2043,352 C31.2043,352 31.2043,352 31.2043,612 C31.2043,758.41 93.0643,926.87 117.4743,987.64 " fill="none" id="MonoBehaviour-backto-ChestSystemView" style="stroke:#181818;stroke-width:1.0;"/><polygon fill="none" points="1861.6643,35.97,1843.3218,31.117,1844.0785,43.0931,1861.6643,35.97" style="stroke:#181818;stroke-width:1.0;"/></g><!--link InfoHolderController to InforHolderView--><g id="link_InfoHolderController_InforHolderView"><path codeLine="68" d="M1744.0843,875.1 C1866.8843,905.72 2027.6824,945.809 2144.2824,974.869 " fill="none" id="InfoHolderController-to-InforHolderView" style="stroke:#181818;stroke-width:1.0;"/><polygon fill="#181818" points="2150.1043,976.32,2142.3388,970.2623,2145.2527,975.1108,2140.4041,978.0248,2150.1043,976.32" style="stroke:#181818;stroke-width:1.0;"/><text fill="#000000" font-family="sans-serif" font-size="13" lengthAdjust="spacing" textLength="89" x="2053.3587" y="971.987">inforHolderView</text></g><!--link InfoHolderService to InforHolderView--><g id="link_InfoHolderService_InforHolderView"><path codeLine="73" d="M1637.0443,652.84 C1676.3443,688.92 1734.7643,743.23 1784.2043,792 C1820.6843,827.98 1820.7143,847.93 1864.2043,875 C1951.6843,929.45 2057.1375,962.6401 2143.8975,983.3001 " fill="none" id="InfoHolderService-to-InforHolderView" style="stroke:#181818;stroke-width:1.0;"/><polygon fill="#181818" points="2149.7343,984.69,2141.9057,978.7139,2144.8703,983.5317,2140.0525,986.4963,2149.7343,984.69" style="stroke:#181818;stroke-width:1.0;"/><text fill="#000000" font-family="sans-serif" font-size="13" lengthAdjust="spacing" textLength="89" x="2052.9731" y="980.7101">inforHolderView</text></g><!--link InfoHolderService to InfoHolderController--><g id="link_InfoHolderService_InfoHolderController"><path codeLine="74" d="M1590.1743,652.7 C1588.2043,692.27 1585.5239,746.0575 1583.5439,785.6675 " fill="none" id="InfoHolderService-to-InfoHolderController" style="stroke:#181818;stroke-width:1.0;"/><polygon fill="#181818" points="1583.2443,791.66,1587.6886,782.8709,1583.4939,786.6662,1579.6986,782.4715,1583.2443,791.66" style="stroke:#181818;stroke-width:1.0;"/><text fill="#000000" font-family="sans-serif" font-size="13" lengthAdjust="spacing" textLength="112" x="1462.6444" y="781.2225">infoHolderController</text></g><!--reverse link MonoBehaviour to InforHolderView--><g id="link_MonoBehaviour_InforHolderView"><path codeLine="83" d="M2010.4776,51.8639 C2133.2176,84.5639 2367.2043,169.23 2367.2043,352 C2367.2043,352 2367.2043,352 2367.2043,612 C2367.2043,726.17 2336.0643,855.35 2313.1443,935 " fill="none" id="MonoBehaviour-backto-InforHolderView" style="stroke:#181818;stroke-width:1.0;"/><polygon fill="none" points="1993.0843,47.23,2008.933,57.6616,2012.0222,46.0661,1993.0843,47.23" style="stroke:#181818;stroke-width:1.0;"/></g><!--link InforHolderView to TextMeshProUGUI--><g id="link_InforHolderView_TextMeshProUGUI"><path codeLine="84" d="M2353.8043,1089.01 C2379.5743,1110.8 2403.394,1129.6338 2427.414,1145.5638 " fill="none" id="InforHolderView-to-TextMeshProUGUI" style="stroke:#181818;stroke-width:1.0;"/><polygon fill="#181818" points="2432.4143,1148.88,2427.1247,1140.5722,2428.2474,1146.1165,2422.7031,1147.2393,2432.4143,1148.88" style="stroke:#181818;stroke-width:1.0;"/><text fill="#000000" font-family="sans-serif" font-size="13" lengthAdjust="spacing" textLength="49" x="2365.2751" y="1138.1267">coinText</text></g><!--link InforHolderView to TextMeshProUGUI--><g id="link_InforHolderView_TextMeshProUGUI"><path codeLine="85" d="M2380.0343,1089.01 C2405.9843,1110.72 2427.7521,1128.9403 2446.7721,1144.8503 " fill="none" id="InforHolderView-to-TextMeshProUGUI-1" style="stroke:#181818;stroke-width:1.0;"/><polygon fill="#181818" points="2451.3743,1148.7,2447.0375,1139.8574,2447.5392,1145.4919,2441.9046,1145.9936,2451.3743,1148.7" style="stroke:#181818;stroke-width:1.0;"/><text fill="#000000" font-family="sans-serif" font-size="13" lengthAdjust="spacing" textLength="50" x="2450.6491" y="1137.9633">gemText</text></g><!--link InforHolderView to TextMeshProUGUI--><g id="link_InforHolderView_TextMeshProUGUI"><path codeLine="86" d="M2406.2643,1089.01 C2432.4943,1110.72 2452.5495,1128.2954 2466.6195,1144.2054 " fill="none" id="InforHolderView-to-TextMeshProUGUI-2" style="stroke:#181818;stroke-width:1.0;"/><polygon fill="#181818" points="2470.5943,1148.7,2467.6285,1139.3083,2467.282,1144.9545,2461.6358,1144.608,2470.5943,1148.7" style="stroke:#181818;stroke-width:1.0;"/><text fill="#000000" font-family="sans-serif" font-size="13" lengthAdjust="spacing" textLength="87" x="2479.5349" y="1137.9633">notificationText</text></g><!--link InforHolderView to Button--><g id="link_InforHolderView_Button"><path codeLine="87" d="M2206.8743,1089.24 C2190.6643,1110.92 2179.1551,1127.3954 2172.4351,1143.2554 " fill="none" id="InforHolderView-to-Button" style="stroke:#181818;stroke-width:1.0;"/><polygon fill="#181818" points="2170.0943,1148.78,2177.2885,1142.0537,2172.045,1144.1762,2169.9225,1138.9326,2170.0943,1148.78" style="stroke:#181818;stroke-width:1.0;"/><text fill="#000000" font-family="sans-serif" font-size="13" lengthAdjust="spacing" textLength="58" x="2176.9849" y="1138.0638">startTimer</text></g><!--link InforHolderView to Button--><g id="link_InforHolderView_Button"><path codeLine="88" d="M2233.1043,1089.24 C2217.1543,1110.92 2204.5203,1128.0873 2192.8503,1143.9473 " fill="none" id="InforHolderView-to-Button-1" style="stroke:#181818;stroke-width:1.0;"/><polygon fill="#181818" points="2189.2943,1148.78,2197.8501,1143.9016,2192.2576,1144.7527,2191.4065,1139.1603,2189.2943,1148.78" style="stroke:#181818;stroke-width:1.0;"/><text fill="#000000" font-family="sans-serif" font-size="13" lengthAdjust="spacing" textLength="45" x="2191.3667" y="1141.261">gemBtn</text></g><!--link InforHolderView to Button--><g id="link_InforHolderView_Button"><path codeLine="89" d="M2259.3343,1089.24 C2243.6443,1110.92 2229.4563,1128.7791 2212.8263,1144.6391 " fill="none" id="InforHolderView-to-Button-2" style="stroke:#181818;stroke-width:1.0;"/><polygon fill="#181818" points="2208.4843,1148.78,2217.7579,1145.4633,2212.1026,1145.3292,2212.2366,1139.674,2208.4843,1148.78" style="stroke:#181818;stroke-width:1.0;"/><text fill="#000000" font-family="sans-serif" font-size="13" lengthAdjust="spacing" textLength="70" x="2209.9647" y="1138.2131">generateBtn</text></g><!--link InforHolderView to RectTransform--><g id="link_InforHolderView_RectTransform"><path codeLine="90" d="M2297.8343,1089.24 C2300.2943,1110.92 2302.1077,1126.9583 2303.9077,1142.8183 " fill="none" id="InforHolderView-to-RectTransform" style="stroke:#181818;stroke-width:1.0;"/><polygon fill="#181818" points="2304.5843,1148.78,2307.5439,1139.3863,2304.0205,1143.8119,2299.5949,1140.2885,2304.5843,1148.78" style="stroke:#181818;stroke-width:1.0;"/><text fill="#000000" font-family="sans-serif" font-size="13" lengthAdjust="spacing" textLength="51" x="2310.4473" y="1138.0638">panelBtn</text></g><!--reverse link MonoBehaviour to GenericMonoSingleton`1--><g id="link_MonoBehaviour_GenericMonoSingleton`1"><path codeLine="96" d="M1865.1374,63.1553 C1832.2674,79.6553 1802.8743,94.4 1761.9643,114.94 " fill="none" id="MonoBehaviour-backto-GenericMonoSingleton`1" style="stroke:#181818;stroke-width:1.0;"/><polygon fill="none" points="1881.2243,55.08,1862.4456,57.793,1867.8291,68.5176,1881.2243,55.08" style="stroke:#181818;stroke-width:1.0;"/></g><!--SRC=[fLPBSzem4BxpApGwaKavzEgXp9IqGvbfIgQ6NbF72AB6I1vB9Esa_FUk7bYoB0MOSi3owbljwjkNoweG0isA7Sb9yqnBWbu727uZbCkYaSChbA5dJjTQU8rcHDuy4Y4jM6_x0WURimt_mgirQNniJngSg_RTeUejNrX8VeH8iXlUbsf9OPcrmeIh6k-EXBV1OL3gQ-CPOQIXvIrdFATiMn79sS_tUBoS00s7GMeVuR77s0IZyT_Ho2Tnu1Cw6aqGBZsIS9Uo7fQ69E48RmaBVmHSy0SbBqSZhI1kfp6d6ervLz3Ng3UAFwolkdZuHKgPyECh1TCBwuDvII1DZ74du0caDksYQ6AetsyuamslAjBOzBqEvJPZ71rPGCyxTEzvddcEmqwzqQdchdrrB18Y9IJ6gjPuLos7GUZNUJ5AQyKOZQ8XHiiWHXvJYhcsn8KgyHMhU54-aJNu_i1vXJwWJL49uifklYksP7XFrIFBwmQuwDVQDp1dILRBJCW6Y4dLf8wpXPkNpDleQ8tGWdrcnKD5XZtv9ohY6zEzX5AzgMZv5BOmkD2IAbyb_6SRkBpi8wP0X491tko17qLFfiW93AtgTI5xvdNdDDfUGgWcCYMFnJFb-yPq39VBBZQcCalE3D4OcMU8aEItCO7H4fQtH3pUDNmrMyr3P1kIaqXkQSF8FACdnUhLoo-JcRfxsXwh95vFpSk6rb95pIIdnuIVrVOS7jWLOyykDDxZwHqbxQo7K-AKdkTwTm1UTuJ_spxciVRXwi7hK-saSh9ZD-ctH8V1FQM4IhAFN3PC-YgHsU2JswhgB4WLWsV1ABl15-dniKteKzqfbWLJxSghSftcTmKZ5TIit8kXq0yjwTRxOH3rvBmv6bubpBJ-jzAvb-XyQ0LP5DletEEoZu4tz48hE6xRqU2Tsv80yT2ycw0CQnULMETDpmJzpGPTEJa236ZtvhvkuTQJqrCdciyn_lnxcphZbAcktE_DKVYMx2v0CoxfXfQ5fFmI8w8TN-qWI3apbUmKnWRZ5527MwE-G-TODWKJWDgTzQ5kykTLrIuj3q0yh1ZaPuQMQ3pU4ZcPsDYr6EfXxDx7b-BfL4nJVlm3]--></g></svg>